<?xml version="1.0" standalone="no"?>
<!DOCTYPE svg PUBLIC "-//W3C//DTD SVG 20010904//EN"
 "http://www.w3.org/TR/2001/REC-SVG-20010904/DTD/svg10.dtd">
<svg version="1.0" xmlns="http://www.w3.org/2000/svg"
 width="1856.000000pt" height="1856.000000pt" viewBox="0 0 1856.000000 1856.000000"
 preserveAspectRatio="xMidYMid meet">
<metadata>
Created by potrace 1.14, written by Peter Selinger 2001-2017
</metadata>
<g transform="translate(0.000000,1856.000000) scale(0.100000,-0.100000)"
fill="#000000" stroke="none">
<path d="M7430 12622 c-9 -10 -46 -44 -84 -77 -37 -33 -82 -73 -100 -90 -34
-31 -159 -143 -197 -176 -32 -28 -157 -140 -196 -176 -19 -17 -59 -53 -90 -80
-30 -26 -67 -59 -82 -73 -15 -14 -57 -52 -95 -85 -37 -33 -80 -71 -95 -85 -15
-14 -62 -56 -106 -95 -82 -73 -148 -131 -197 -176 -26 -24 -132 -119 -180
-160 -35 -31 -161 -144 -188 -169 -15 -14 -58 -52 -95 -85 -37 -33 -76 -67
-85 -75 -9 -8 -52 -46 -94 -84 -42 -38 -87 -78 -100 -90 -13 -12 -55 -49 -94
-84 -38 -35 -80 -71 -92 -82 -20 -17 -116 -103 -189 -169 -25 -22 -120 -107
-220 -196 -25 -22 -52 -47 -61 -55 -9 -8 -52 -46 -95 -85 -43 -38 -97 -87
-119 -107 -23 -20 -50 -45 -62 -55 -46 -40 -158 -140 -188 -168 -18 -16 -68
-61 -112 -100 -43 -38 -81 -72 -84 -75 -3 -3 -45 -41 -95 -85 -49 -44 -95 -84
-101 -90 -6 -5 -46 -41 -89 -80 -43 -38 -99 -89 -124 -112 -25 -24 -53 -45
-63 -48 -13 -5 -146 85 -233 157 -5 5 -70 54 -143 108 -88 66 -138 98 -147 93
-7 -5 -31 -24 -52 -43 -21 -19 -83 -75 -138 -124 -55 -49 -124 -110 -153 -137
-29 -27 -55 -49 -57 -49 -2 0 -17 -12 -33 -27 -15 -16 -59 -55 -96 -88 -37
-33 -78 -69 -90 -80 -12 -11 -48 -42 -80 -69 -31 -28 -69 -61 -84 -75 -16 -14
-64 -57 -107 -96 -44 -38 -86 -77 -95 -85 -9 -8 -49 -44 -90 -80 -41 -36 -77
-67 -80 -70 -3 -3 -25 -23 -50 -45 -131 -115 -195 -171 -209 -185 -9 -8 -54
-49 -101 -90 -47 -41 -100 -88 -119 -105 -67 -60 -79 -71 -130 -115 -29 -25
-73 -64 -97 -87 -25 -24 -48 -43 -51 -43 -3 0 -13 -8 -22 -18 -9 -10 -59 -56
-111 -101 -99 -87 -202 -178 -248 -221 -15 -14 -59 -52 -96 -85 -38 -33 -81
-71 -96 -85 -16 -14 -56 -50 -90 -80 -34 -30 -74 -66 -90 -80 -15 -14 -56 -50
-90 -80 -98 -86 -162 -143 -191 -170 -15 -14 -56 -50 -92 -80 -36 -30 -66 -58
-66 -62 -1 -4 39 18 88 47 49 30 92 55 95 55 4 0 12 5 19 10 28 24 103 70 114
70 6 0 13 3 15 8 1 4 30 23 63 43 33 20 154 93 269 162 115 70 213 127 217
127 5 0 9 3 9 8 0 4 17 16 38 27 43 23 202 120 217 133 6 5 16 11 21 13 9 3
51 29 234 140 8 5 59 36 113 69 54 33 100 60 102 60 3 0 36 20 74 45 38 25 74
45 79 45 5 0 17 9 27 20 10 11 22 20 27 20 5 0 37 18 72 40 35 22 68 40 74 40
6 0 12 4 14 8 2 4 107 70 233 147 127 76 276 167 333 202 56 35 107 63 112 63
6 0 10 3 10 8 0 4 21 18 48 31 26 14 56 32 67 42 11 9 32 23 48 30 15 8 74 42
131 77 110 67 103 66 181 33 33 -13 116 -42 170 -57 28 -8 59 -19 70 -24 35
-15 139 -51 165 -56 13 -3 30 -10 37 -16 7 -6 13 -7 13 -3 0 4 6 3 13 -2 6 -6
26 -14 42 -18 17 -5 35 -9 40 -11 6 -1 69 -23 140 -49 72 -25 137 -48 145 -50
8 -2 16 -4 18 -5 1 -2 5 -3 10 -4 4 -1 12 -4 17 -7 6 -3 30 -11 55 -18 25 -7
54 -17 65 -21 11 -5 47 -18 80 -29 33 -11 124 -43 203 -70 78 -27 142 -48 142
-45 0 2 18 -5 40 -16 22 -11 40 -18 40 -15 0 3 14 -1 30 -10 17 -9 30 -13 30
-10 0 3 14 -1 30 -10 16 -9 30 -13 30 -9 0 4 6 2 13 -3 6 -6 30 -16 52 -22 61
-19 84 -32 83 -50 0 -17 9 -132 16 -191 2 -19 7 -69 11 -110 3 -41 8 -89 10
-105 2 -17 6 -64 9 -106 4 -42 8 -85 10 -95 2 -11 7 -62 11 -114 4 -52 9 -108
10 -125 7 -71 16 -163 20 -205 3 -25 8 -76 11 -115 6 -73 7 -85 19 -200 4 -38
9 -90 11 -115 2 -25 7 -70 9 -100 11 -114 15 -157 20 -215 2 -33 7 -76 9 -95
9 -64 18 -175 17 -197 0 -12 4 -25 9 -28 6 -3 10 -1 10 5 0 6 9 30 19 53 10
23 31 71 45 107 15 36 33 77 42 93 8 15 13 27 10 27 -2 0 9 27 25 60 16 33 29
63 29 65 0 3 9 24 19 48 11 23 75 170 142 327 144 337 142 334 143 340 1 3 14
31 29 64 15 32 27 60 27 63 0 2 9 23 19 46 10 23 38 87 61 142 23 55 47 106
52 113 6 6 8 12 5 12 -6 0 13 45 70 169 14 30 26 59 28 65 2 10 19 50 50 121
19 42 48 109 50 115 1 3 9 23 19 45 10 22 33 76 51 120 19 44 46 107 61 140
15 33 29 65 30 70 3 11 123 292 154 360 10 23 28 64 39 92 11 28 29 71 40 97
12 25 30 66 41 91 11 25 20 47 20 50 0 2 12 30 26 62 15 32 33 73 40 91 8 17
20 47 28 65 8 17 47 109 86 202 39 94 80 187 91 208 10 21 19 42 19 47 0 6 11
33 25 62 14 28 25 58 25 65 0 7 5 13 10 13 6 0 10 7 10 16 0 8 12 41 26 72 14
31 37 81 50 110 13 29 24 55 24 57 0 4 151 359 204 480 7 17 24 57 37 90 13
33 27 62 32 63 4 2 7 9 7 15 0 11 283 680 341 805 16 35 29 65 29 68 0 15 42
94 50 94 6 0 10 -4 10 -8 0 -4 16 -26 36 -48 20 -21 55 -61 78 -87 22 -27 52
-61 66 -76 14 -15 50 -56 81 -92 81 -92 222 -252 234 -265 6 -6 35 -39 65 -74
30 -34 64 -72 75 -85 11 -12 45 -51 76 -86 31 -35 108 -122 171 -194 63 -71
123 -140 134 -153 48 -58 80 -87 94 -83 8 1 44 20 80 41 83 47 154 87 205 114
22 12 42 23 45 26 3 3 29 18 58 34 l54 28 36 -41 c21 -22 56 -62 79 -88 58
-67 71 -82 130 -149 28 -32 60 -68 70 -80 64 -74 215 -246 223 -254 3 -3 23
-26 45 -51 22 -25 69 -78 104 -117 35 -40 73 -84 85 -99 11 -15 32 -39 46 -53
14 -14 54 -59 89 -100 36 -41 74 -85 85 -96 12 -12 39 -43 61 -69 22 -27 49
-57 60 -69 11 -12 33 -37 49 -56 16 -19 49 -58 75 -86 38 -42 92 -103 181
-204 8 -10 38 -43 65 -75 28 -32 55 -63 60 -69 6 -6 42 -47 80 -91 39 -44 75
-85 80 -91 10 -11 94 -106 132 -150 33 -39 118 -135 138 -158 11 -12 45 -50
75 -85 30 -35 66 -76 80 -91 14 -15 48 -53 75 -85 28 -31 61 -70 75 -85 14
-15 50 -55 80 -90 30 -35 65 -75 78 -88 12 -14 41 -48 65 -75 23 -28 53 -63
67 -77 14 -14 52 -57 85 -96 33 -38 72 -82 87 -99 15 -16 36 -41 48 -55 12
-14 45 -52 74 -85 30 -33 91 -103 136 -155 46 -52 109 -124 140 -160 111 -124
145 -163 163 -184 49 -56 125 -143 152 -173 17 -18 46 -51 65 -74 19 -23 42
-49 50 -58 9 -9 47 -52 85 -96 39 -44 75 -85 80 -91 6 -6 37 -42 70 -79 33
-38 69 -79 80 -91 18 -20 72 -82 124 -143 12 -13 21 -22 21 -19 0 8 -59 190
-69 213 -7 15 -47 142 -56 175 -1 3 -5 14 -9 25 -4 11 -11 29 -15 40 -14 35
-131 389 -135 407 -6 24 -197 599 -209 628 -19 48 -25 65 -43 125 -10 33 -19
62 -19 65 -1 3 -5 12 -8 20 -11 26 -49 144 -52 163 -2 9 -7 23 -12 30 -4 6 -8
17 -9 22 -2 13 -84 265 -95 290 -13 31 -120 358 -125 379 -2 10 -9 25 -16 34
-7 8 -11 16 -8 16 4 1 -12 62 -28 106 -3 8 -6 17 -6 20 -1 3 -4 10 -7 15 -4 6
-14 37 -24 70 -9 33 -21 69 -26 80 -4 11 -22 65 -40 120 -17 55 -36 109 -41
119 -9 16 -5 24 18 44 16 14 54 46 84 72 59 51 111 95 148 126 13 10 34 28 46
39 13 11 43 37 67 57 77 65 173 147 205 175 12 10 43 36 70 58 26 22 98 82
158 134 61 52 136 115 166 140 30 25 68 58 85 73 69 61 103 88 111 88 5 0 28
-17 51 -38 23 -20 61 -53 84 -72 53 -44 250 -211 265 -225 6 -5 30 -26 54 -45
24 -19 66 -55 93 -80 27 -25 59 -52 71 -60 12 -8 26 -19 31 -25 6 -6 39 -36
75 -66 36 -29 67 -56 70 -59 3 -3 32 -27 65 -55 33 -27 66 -55 73 -62 7 -7 34
-29 59 -50 26 -21 54 -45 63 -53 25 -24 93 -82 140 -120 24 -19 51 -42 59 -50
9 -9 45 -40 81 -70 36 -30 67 -58 68 -62 2 -5 8 -8 12 -8 5 0 19 -10 32 -22
21 -21 91 -81 171 -148 16 -14 37 -32 46 -40 18 -16 123 -105 154 -130 11 -8
31 -26 47 -40 15 -14 47 -41 71 -62 24 -20 55 -46 69 -58 14 -11 47 -40 74
-63 27 -23 57 -49 66 -57 9 -8 38 -33 65 -55 28 -22 57 -47 65 -55 9 -8 43
-37 75 -65 33 -27 65 -54 71 -60 6 -5 33 -28 60 -51 127 -107 353 -299 410
-349 27 -23 49 -42 124 -105 30 -25 92 -78 139 -117 46 -40 86 -72 87 -70 3 2
1 8 -121 362 -47 138 -88 258 -90 267 -2 9 -8 25 -13 35 -6 10 -11 21 -11 25
-2 11 -2 10 -75 224 l-64 192 64 -39 c35 -21 68 -39 73 -39 5 0 11 -3 13 -8 3
-7 539 -332 562 -341 6 -2 13 -7 16 -10 3 -4 82 -52 175 -108 94 -55 253 -150
354 -212 101 -61 188 -111 193 -111 4 0 8 -4 8 -9 0 -5 8 -12 18 -15 29 -11
82 -43 104 -63 11 -10 23 -18 27 -17 3 1 22 -9 41 -21 19 -12 49 -30 65 -39
17 -9 48 -28 70 -42 22 -14 48 -27 58 -31 9 -3 17 -9 17 -13 0 -4 8 -10 18
-14 9 -3 50 -26 90 -51 41 -25 78 -45 83 -45 5 0 9 -4 9 -10 0 -5 4 -10 9 -10
5 0 33 -16 62 -35 30 -19 59 -35 66 -35 7 0 13 -4 13 -9 0 -5 14 -14 31 -21
17 -7 37 -20 45 -28 8 -8 18 -12 21 -9 6 7 -5 18 -67 68 -25 20 -59 49 -76 65
-18 16 -53 47 -80 69 -26 22 -55 47 -64 55 -8 8 -51 44 -94 80 -43 36 -88 74
-100 85 -44 39 -143 124 -290 250 -83 70 -155 133 -162 139 -6 6 -31 27 -54
45 -23 19 -48 40 -54 46 -6 6 -56 49 -111 95 -55 47 -102 87 -105 90 -4 4
-178 153 -235 201 -11 9 -42 37 -70 61 -27 24 -75 64 -105 90 -30 25 -69 59
-87 74 -17 16 -50 45 -74 63 -23 19 -47 40 -53 45 -16 15 -83 73 -142 122 -27
23 -62 54 -79 68 -16 15 -58 50 -92 78 -35 28 -63 55 -63 60 0 4 -4 8 -10 8
-5 0 -19 10 -32 23 -13 12 -45 40 -72 62 -27 22 -58 48 -70 58 -11 11 -46 40
-75 65 -65 55 -131 113 -147 127 -6 6 -35 30 -64 55 -30 25 -71 60 -92 78 -21
19 -42 32 -48 30 -10 -3 -133 -112 -198 -175 -19 -18 -36 -33 -38 -33 -3 0
-18 -13 -34 -30 -16 -16 -32 -30 -35 -30 -3 0 -20 -16 -37 -35 -29 -30 -34
-33 -48 -19 -8 8 -76 64 -150 125 -74 61 -155 128 -180 149 -25 21 -74 63
-110 92 -36 29 -72 59 -80 66 -50 42 -79 67 -110 90 -19 15 -42 34 -50 42 -17
15 -23 21 -120 100 -30 25 -57 47 -60 50 -3 3 -41 35 -85 70 -44 36 -85 69
-91 75 -6 5 -30 26 -54 45 -24 19 -48 40 -54 45 -6 6 -47 39 -91 75 -44 35
-82 67 -85 70 -3 3 -30 25 -60 50 -30 25 -57 47 -60 50 -3 3 -43 37 -90 75
-47 38 -87 72 -90 75 -3 3 -30 25 -60 50 -30 24 -64 52 -75 61 -17 15 -175
146 -228 189 -10 8 -31 25 -45 37 -15 13 -31 23 -36 23 -8 0 -121 -83 -136
-100 -3 -3 -70 -57 -150 -120 -80 -63 -147 -117 -150 -120 -3 -3 -84 -68 -180
-145 -96 -76 -182 -145 -190 -152 -38 -33 -126 -103 -190 -153 -25 -19 -47
-37 -50 -40 -3 -3 -36 -30 -75 -60 -38 -30 -72 -57 -75 -60 -3 -3 -39 -32 -80
-65 -41 -32 -77 -62 -80 -65 -3 -3 -30 -24 -60 -48 -30 -23 -62 -48 -70 -55
-8 -8 -98 -80 -200 -161 -102 -81 -194 -155 -205 -164 -11 -10 -49 -40 -85
-67 -36 -28 -68 -54 -71 -58 -7 -10 -19 1 -74 68 -22 26 -51 60 -65 75 -24 26
-104 117 -165 188 -16 20 -37 43 -45 52 -8 8 -44 49 -80 90 -36 41 -69 80 -75
86 -5 6 -32 37 -60 69 -27 33 -59 69 -70 81 -22 24 -42 47 -134 154 -36 41
-70 80 -75 85 -6 6 -36 39 -66 75 -30 35 -62 72 -70 80 -8 9 -28 32 -44 51
-16 19 -48 54 -70 79 -23 25 -64 72 -93 105 -28 33 -61 71 -73 85 -83 95 -128
148 -150 171 -14 15 -45 51 -70 80 -25 29 -50 57 -55 63 -6 6 -37 42 -70 81
-33 38 -64 75 -70 81 -5 6 -37 42 -70 79 -33 38 -69 79 -80 91 -11 12 -40 45
-63 73 -39 45 -72 65 -72 43 0 -4 -9 -12 -19 -17 -11 -6 -63 -41 -118 -79 -54
-38 -118 -83 -143 -100 -25 -16 -51 -36 -58 -43 -7 -7 -17 -13 -22 -13 -5 0
-15 -6 -22 -13 -7 -7 -50 -38 -95 -69 l-82 -57 -62 72 c-33 40 -84 98 -112
131 -29 32 -58 68 -66 80 -8 11 -18 23 -21 26 -4 3 -35 39 -70 80 -35 41 -67
77 -70 80 -3 3 -23 27 -44 54 -22 26 -50 59 -63 72 -12 13 -23 26 -23 28 0 3
-14 19 -31 36 -18 16 -29 30 -26 30 3 0 -7 12 -21 28 -15 15 -45 49 -67 76
-22 26 -49 58 -60 70 -11 12 -40 46 -65 76 -132 157 -363 425 -369 427 -3 0
-13 -6 -21 -15z"/>
<path d="M18527 7259 c7 -7 15 -10 18 -7 3 3 -2 9 -12 12 -14 6 -15 5 -6 -5z"/>
</g>
</svg>
